<?xml version="1.0" encoding="UTF-8"?>
<svg xmlns="http://www.w3.org/2000/svg" version="1.1" viewBox="0 0 400 400">
  <defs>
    <style>
      .cls-1 {
        stroke: #000;
      }

      .cls-1, .cls-2 {
        fill: none;
        stroke-linecap: square;
        stroke-miterlimit: 10;
        stroke-width: 14px;
      }

      .cls-2 {
        stroke: #fff;
      }
    </style>
  </defs>
  <!-- Generator: Adobe Illustrator 28.6.0, SVG Export Plug-In . SVG Version: 1.2.0 Build 709)  -->
  <g>
    <g id="rand">
      <rect class="cls-1" x="6" y="7" width="387" height="385"/>
    </g>
    <g id="PICTO">
      <polygon points="176.23 14 259.33 82.38 330.55 156.63 305.3 185.38 293.52 249.17 266 291.71 266 385.94 129.37 385.94 144.25 275.86 59 153 123.99 67.75 133.98 67.75 176.23 14"/>
      <polyline class="cls-2" points="127.06 62.68 219 131 192 165"/>
      <polyline class="cls-2" points="137.82 148.68 237.69 185.38 261.83 210.81 315 188"/>
      <polyline class="cls-2" points="173 166 226.35 242.92 223 377"/>
      <line class="cls-2" x1="183.14" y1="90.59" x2="210.13" y2="44.02"/>
      <line class="cls-2" x1="198.22" y1="157.83" x2="256.83" y2="79.88"/>
      <line class="cls-2" x1="237.69" y1="185.38" x2="297.61" y2="122.41"/>
    </g>
  </g>
</svg>