<?xml version="1.0" encoding="UTF-8"?>
<svg id="infp" xmlns="http://www.w3.org/2000/svg" viewBox="0 0 400 400">
  <defs>
    <style>
      .cls-1 {
        stroke-width: 0px;
      }
    </style>
  </defs>
  <polygon class="cls-1" points="217.2 120.94 251.21 75.7 216.44 47.09 186.75 98.31 217.2 120.94"/>
  <polygon class="cls-1" points="228.98 129.69 213.1 149.68 201.79 164.73 235.79 177.22 292.82 117.3 261.78 84.94 228.44 129.29 228.98 129.69"/>
  <polygon class="cls-1" points="247.35 185.38 263.55 202.46 306.47 184.04 330.55 156.63 302.52 127.41 247.35 185.38"/>
  <polygon class="cls-1" points="233.74 191.38 187.28 174.31 233.4 240.81 229.82 384.17 215.83 383.82 219.29 245.03 164.42 165.91 128.83 152.84 133.66 139.7 187.46 159.46 202.03 141.11 208.78 132.13 123.33 68.63 59 153 144.25 275.86 129.37 385.94 266 385.94 266 291.71 293.52 249.17 302.41 201.02 260.11 219.17 233.74 191.38"/>
  <polygon class="cls-1" points="205.48 38.07 176.23 14 138.27 62.29 175.44 89.91 205.48 38.07"/>
</svg>