<?xml version="1.0" encoding="UTF-8"?>
<svg id="Layer_1" data-name="Layer 1" xmlns="http://www.w3.org/2000/svg" version="1.1" viewBox="0 0 400 400">
  <defs>
    <style>
      .cls-1 {
        fill: #000;
        stroke-width: 0px;
      }
    </style>
  </defs>
  <g id="rand">
    <path class="cls-1" d="M-1,.3v399h401V.3H-1ZM386,385.3H13V14.3h373v371Z"/>
  </g>
  <g>
    <polygon class="cls-1" points="205.5 38.4 175.4 90.2 138.3 62.6 176.2 14.3 205.5 38.4"/>
    <polygon class="cls-1" points="302.4 201.3 293.5 249.5 266 292 266 386.2 229.8 386.2 229.8 384.5 233.4 241.1 187.3 174.6 233.7 191.7 260.1 219.5 302.4 201.3"/>
    <polygon class="cls-1" points="219.3 245.3 215.8 384.1 215.8 386.2 129.4 386.2 129.5 385.3 144.2 276.1 59 153.3 123.3 68.9 208.8 132.4 202.1 141.3 187.5 159.8 133.7 140 128.8 153.1 164.4 166.2 219.3 245.3"/>
    <polygon class="cls-1" points="229.8 384.5 229.8 386.2 215.8 386.2 215.8 384.1 229.8 384.5"/>
  </g>
  <polygon class="cls-1" points="330.5 156.9 306.5 184.3 263.5 202.7 247.3 185.7 302.5 127.7 330.5 156.9"/>
  <polygon class="cls-1" points="292.8 117.6 235.8 177.5 201.8 165 213.1 149.9 227.8 130.4 228.4 129.6 261.8 85.2 292.8 117.6"/>
  <polygon class="cls-1" points="251.2 76 217.2 121.2 186.8 98.6 216.4 47.4 251.2 76"/>
</svg>