<?xml version="1.0" encoding="UTF-8"?>
<svg xmlns="http://www.w3.org/2000/svg" version="1.1" viewBox="0 0 400 400">
  <defs>
    <style>
      .cls-1 {
        fill: none;
        stroke: #000;
        stroke-linecap: square;
        stroke-miterlimit: 10;
        stroke-width: 14px;
      }
    </style>
  </defs>
  <!-- Generator: Adobe Illustrator 28.6.0, SVG Export Plug-In . SVG Version: 1.2.0 Build 709)  -->
  <g>
    <g id="rand">
      <rect class="cls-1" x="6" y="7" width="387" height="385"/>
    </g>
    <g id="PICTO">
      <path class="cls-1" d="M34.67,115.83c0-40.98,33.22-74.2,74.2-74.2s74.2,33.22,74.2,74.2-33.22,74.2-74.2,74.2h-26.26v139.41h27.74v-113.32c56.15,0,101.66-45.52,101.66-101.66S166.48,12.81,110.34,12.81,8.68,58.32,8.68,114.47l25.99,1.37Z"/>
      <rect class="cls-1" x="82.6" y="356.65" width="28.42" height="34.35"/>
      <polyline class="cls-1" points="132.5 356.65 296.37 356.65 296.37 210.81"/>
      <rect class="cls-1" x="238" y="8" width="155" height="202"/>
      <line class="cls-1" x1="261" y1="55" x2="367" y2="55"/>
      <line class="cls-1" x1="261" y1="85" x2="367" y2="85"/>
      <line class="cls-1" x1="261" y1="115" x2="367" y2="115"/>
      <line class="cls-1" x1="261" y1="144" x2="367" y2="144"/>
    </g>
  </g>
</svg>