<?xml version="1.0" encoding="UTF-8"?>
<svg id="infp" xmlns="http://www.w3.org/2000/svg" viewBox="0 0 400 400">
  <defs>
    <style>
      .cls-1 {
        stroke-width: 0px;
      }
    </style>
  </defs>
  <path class="cls-1" d="m176.06,115.83c0,37.05-30.14,67.2-67.2,67.2h-33.26v136.41h41.74v-96.54c56.67-3.62,101.66-50.87,101.66-108.44S170.25,5.81,110.34,5.81,1.68,54.55,1.68,114.47v6.64l39.99,2.1v-7.38c0-37.05,30.14-67.2,67.2-67.2s67.2,30.14,67.2,67.2Zm-148.06-7.36l-12.09-.64C19.32,58.73,60.37,19.81,110.34,19.81s94.66,42.46,94.66,94.66-42.46,94.66-94.66,94.66h-7v96.31h-13.74v-108.41h19.26c44.77,0,81.2-36.42,81.2-81.2s-36.42-81.2-81.2-81.2c-42.29,0-77.13,32.5-80.87,73.84Z"/>
  <path class="cls-1" d="m75.6,398h42.42v-48.35h-42.42v48.35Zm14-34.35h14.42v20.35h-14.42v-20.35Z"/>
  <path class="cls-1" d="m231,217h76v132.65h-151.5v14h165.5v-146.65h79V1h-169v216Zm14-202h141v188h-141V15Z"/>
  <rect class="cls-1" x="254" y="48" width="120" height="14"/>
  <rect class="cls-1" x="254" y="78" width="120" height="14"/>
  <rect class="cls-1" x="254" y="108" width="120" height="14"/>
  <rect class="cls-1" x="254" y="137" width="120" height="14"/>
</svg>