<?xml version="1.0" encoding="UTF-8"?>
<svg id="Layer_1" data-name="Layer 1" xmlns="http://www.w3.org/2000/svg" version="1.1" viewBox="0 0 400 400">
  <defs>
    <style>
      .cls-1 {
        <!-- fill: #000; -->
        stroke-width: 0px;
      }
    </style>
  </defs>
  <path class="cls-1" d="M323,334c-2.4,0-6.5,0-12,0v-11.1c6.3,0,10.2,0,11,.1l7,.4.9-14-7-.4c-.9,0-5.1-.1-12-.1v-16c6.3,0,10.2,0,11.1.1l7,.4.9-14-7-.4c-7-.5-225.1,0-249.9,0h-7v44h7c44.8,0,138.1-.2,196.9-.2v11.1c-53.3,0-131.7-.2-171.6,0-2.6,0-5.1,0-7.4,0-10.3,0-16.8,0-17.9.2l-7,.4.9,13.9,7-.4c1.1,0,7.3-.1,17-.1v16c-10.3,0-16.8,0-17.9.2l-7,.4.9,13.9,7-.4c6.4-.4,181.9-.1,249,0h7s0-44,0-44h-7ZM80,308.9v-16c47,0,134-.2,190-.2v16c-61.9,0-159.6.1-190,.2ZM105,363.8v-16c39.8,0,110.1,0,165,0v.9l18.6,15.1c-49.4,0-136.7-.2-183.6-.1ZM316,363.9c-5.9,0-14.5,0-24.8,0l19.8-15v-1c1.7,0,3.3,0,5,0v16Z"/>
  <path class="cls-1" d="M291.2,363.9l-1.3,1-1.2-1c.9,0,1.7,0,2.5,0Z"/>
  <path class="cls-1" d="M-1,0v399h401V0H-1ZM119.7,14h68.1c0,9.1,0,32.8,0,36v7s14,0,14,0v-7c0-11.5,0-29.1,0-35.9h73.5v187.5l-51.5,51.5h-52.6l-51.5-51.5V14ZM386,385H13V14h92.7v193.3l59.7,59.7h64.2l59.7-59.7V14h96.7v371Z"/>
  <path class="cls-1" d="M235.8,193.7l-1.3,13.9-38.3-3.6c-6.6.6-31.5,2.9-34.9,3h-7c0,.1-.3-13.8-.3-13.8l7-.2c2.3,0,22.4-1.8,34.5-3h.7c0,0,39.6,3.6,39.6,3.6Z"/>
  <path class="cls-1" d="M225.4,222.2l-7,.7c-.3,0-.4,0-11.8,0s-14,0-26.4,0h-15.5v-14h15.5c12.1,0,34.3,0,37.1,0l6.6-.7,1.4,13.9Z"/>
  <path class="cls-1" d="M182.8,72l-1.6,13.9-25.2-2.8c-4.1.5-16.4,2-19.3,2.1h-7c0,.1-.3-13.9-.3-13.9h7c1.6-.2,10.8-1.2,18.7-2.2h.8c0-.1,26.8,2.9,26.8,2.9Z"/>
  <path class="cls-1" d="M182.1,91.2v14c0,0-7.1,0-7.1,0-.3,0-32-.1-38.3,0h-7c0,.1-.3-13.9-.3-13.9h7c6.5-.3,37.4-.2,38.7-.1h7Z"/>
  <path class="cls-1" d="M261.8,72l-1.6,13.9-24.2-2.9c-4.2.5-17.2,2-20.3,2.1h-7c0,.1-.3-13.8-.3-13.8l7-.2c1.9,0,12.7-1.2,19.8-2.1h.8c0,0,25.8,3,25.8,3Z"/>
  <path class="cls-1" d="M261.1,91.2v14c0,0-7.1,0-7.1,0-.3,0-32-.1-38.3,0h-7c0,.1-.3-13.9-.3-13.9h7c6.5-.3,37.4-.2,38.7-.1h7Z"/>
  <path class="cls-1" d="M222.2,163v14c0,0-7.1,0-7.1,0-.3,0-34.5-.1-40.8,0l-7,.2-.3-14,7-.2c2.2,0,7.5,0,13.7,0v-95.9h14v96c7.1,0,13,0,13.5,0h7Z"/>
  <path class="cls-1" d="M288.6,363.9l1.2,1,1.3-1c-.8,0-1.7,0-2.5,0Z"/>
  <path class="cls-1" d="M98.4,333.8c-2.6,0-5.1,0-7.4,0h0s7.4,0,7.4,0Z"/>
  <path class="cls-1" d="M311.7,107.9l1.9-6.2-13.4-4.2-2.1,6.7c-.4,1.2-1.2,3.8-.3,47.9v7c.1,0,14.1-.3,14.1-.3v-7c-.5-18.9-.7-40.1-.3-43.9Z"/>
  <path class="cls-1" d="M97.7,107.9l1.9-6.2-13.4-4.2-2.1,6.7c-.4,1.2-1.2,3.8-.3,47.9v7c.1,0,14.1-.3,14.1-.3v-7c-.5-18.9-.7-40.1-.3-43.9Z"/>
</svg>