<?xml version="1.0" encoding="UTF-8"?>
<svg xmlns="http://www.w3.org/2000/svg" version="1.1" viewBox="0 0 400 400">
  <defs>
    <style>
      .cls-1 {
        fill: none;
      }

      .cls-1, .cls-2 {
        stroke: #000;
        stroke-linecap: square;
        stroke-miterlimit: 10;
        stroke-width: 14px;
      }
    </style>
  </defs>
  <!-- Generator: Adobe Illustrator 28.6.0, SVG Export Plug-In . SVG Version: 1.2.0 Build 709)  -->
  <g>
    <g id="rand">
      <rect class="cls-1" x="6" y="7" width="387" height="385"/>
    </g>
    <g id="PICTO">
      <path class="cls-1" d="M73.5,340.95c7-.45,249.45,0,249.45,0v30s-242.45-.45-249.45,0"/>
      <path class="cls-1" d="M322.5,285.95c-7-.45-249.45,0-249.45,0v30s242.45-.45,249.45,0"/>
      <polyline class="cls-1" points="282.27 8 282.27 204.39 226.66 260 168.27 260 112.66 204.39 112.66 10.88"/>
      <path class="cls-1" d="M161.2,200c3.35-.07,35-3,35-3l32,3"/>
      <path class="cls-1" d="M171.7,216c5.38,0,45.81.02,46,0"/>
      <path class="cls-1" d="M136.56,78.14c2.95-.06,19.44-2.14,19.44-2.14l19.06,2.14"/>
      <path class="cls-1" d="M136.56,98.14c6.5-.14,38.5,0,38.5,0"/>
      <path class="cls-1" d="M215.56,78.14c3.15-.07,20.44-2.14,20.44-2.14l18.06,2.14"/>
      <path class="cls-1" d="M215.56,98.14c6.5-.14,38.5,0,38.5,0"/>
      <path class="cls-1" d="M174.2,170c6.5-.14,41,0,41,0"/>
      <line class="cls-1" x1="194.7" y1="74" x2="194.7" y2="167"/>
      <polygon class="cls-2" points="304 345.43 290 356 277 345.43 277 286 304 286 304 345.43"/>
      <line class="cls-2" x1="97.98" y1="340.79" x2="97.98" y2="369"/>
    </g>
    <g id="infp">
      <path class="cls-1" d="M304.84,106.3c-.84,2.7,0,45.66,0,45.66"/>
      <path class="cls-1" d="M194.84,11c-.12,2.82,0,38.96,0,38.96"/>
      <path class="cls-1" d="M90.84,106.3c-.84,2.7,0,45.66,0,45.66"/>
    </g>
  </g>
</svg>