<?xml version="1.0" encoding="UTF-8"?>
<svg id="infp" xmlns="http://www.w3.org/2000/svg" viewBox="0 0 400 400">
  <defs>
    <style>
      .cls-1 {
        stroke-width: 0px;
      }
    </style>
  </defs>
  <path class="cls-1" d="m311,333.93v-11.11c6.28.03,10.19.07,11.05.11l6.99.45.9-13.97-6.99-.45c-.89-.06-5.15-.1-11.95-.13v-16.01c6.27.03,10.18.06,11.05.11l6.98.45.9-13.97-6.99-.45c-7.03-.45-225.08-.06-249.92-.01h-6.99v44.01h7.01c44.83-.1,138.1-.23,196.94-.21v11.11c-52.96-.08-130.59-.17-170.8-.08h-8.22v.02c-10.27.03-16.8.09-17.93.16l-6.95.45.89,13.91,6.96-.39c1.11-.06,7.27-.11,17.04-.14v16.01c-10.27.03-16.8.09-17.93.16l-6.95.45.89,13.91,6.96-.39c6.43-.36,181.92-.11,249,.01h7.01s0-43.99,0-43.99h-6.99c-2.36-.02-6.47-.03-11.97-.03Zm-230.95-24.99v-16c46.97-.08,134.01-.21,189.95-.18v16c-61.9-.03-159.6.13-189.95.19Zm24.93,54.84v-16c39.83-.06,110.13.01,165.02.09v.9l18.61,15.13c-49.43-.08-136.66-.2-183.64-.12Zm210.98.16c-5.94-.01-14.47-.03-24.8-.04l19.84-14.98v-.99c1.7,0,3.35,0,4.95,0v16Z"/>
  <polygon class="cls-1" points="229.56 267 289.27 207.29 289.27 1 275.27 1 275.27 201.5 223.77 253 171.17 253 119.67 201.5 119.67 3.88 105.67 3.88 105.67 207.29 165.37 267 229.56 267"/>
  <path class="cls-1" d="m235.83,193.68l-39.62-3.71-.65.06c-12.14,1.12-32.25,2.92-34.51,2.97l-7,.15.3,14,7-.15c3.3-.07,28.29-2.36,34.84-2.97l38.32,3.59,1.31-13.94Z"/>
  <path class="cls-1" d="m186.08,209c-6.84,0-12.58,0-14.38,0h-7s0,14,0,14h7c1.8,0,7.53,0,14.37,0,9.51,0,16.19,0,20.89,0,11.08,0,11.2-.01,11.59-.06l6.95-.85-1.71-13.9-6.55.8c-2.68.01-19.69,0-31.16,0Z"/>
  <path class="cls-1" d="m136.72,85.14c2.92-.06,15.25-1.58,19.33-2.09l25.19,2.83,1.56-13.91-26.85-3.02-.83.1c-7.93,1-17.09,2.05-18.72,2.09l-7,.15.31,14,7-.15Z"/>
  <path class="cls-1" d="m182.03,105.17l.06-14-7-.03c-1.31,0-32.17-.14-38.68,0l-7,.15.31,14,7-.15c6.33-.14,38,0,38.32,0l7,.03Z"/>
  <path class="cls-1" d="m215.72,85.14c3.08-.07,16.06-1.59,20.29-2.09l24.19,2.87,1.65-13.9-25.84-3.06-.83.1c-7.04.84-17.82,2.05-19.76,2.09l-7,.15.31,14,7-.15Z"/>
  <path class="cls-1" d="m261.03,105.17l.06-14-7-.03c-1.31,0-32.17-.14-38.68,0l-7,.15.31,14,7-.15c6.33-.14,38,0,38.32,0l7,.03Z"/>
  <path class="cls-1" d="m174.05,163l-7,.15.31,14,7-.15c6.34-.14,40.48,0,40.82,0l7,.03.06-14-7-.03c-.57,0-6.39-.03-13.53-.04v-95.96h-14v95.94c-6.11,0-11.43.02-13.65.06Z"/>
  <path class="cls-1" d="m297.97,159.09l14-.27-.14-7c-.37-18.9-.52-40.11-.17-43.91l1.93-6.23-13.37-4.14-2.07,6.69c-.38,1.23-1.17,3.78-.31,47.86l.14,7Z"/>
  <path class="cls-1" d="m187.86,56.98l14-.04-.02-7c-.04-13.91-.09-36.71,0-38.65l.29-6.99-13.99-.57-.29,6.99c-.12,2.89-.02,35.55,0,39.27l.02,7Z"/>
  <path class="cls-1" d="m83.97,159.09l14-.27-.14-7c-.37-18.9-.52-40.11-.17-43.91l1.93-6.23-13.37-4.14-2.07,6.69c-.38,1.23-1.17,3.78-.31,47.86l.14,7Z"/>
</svg>