<?xml version="1.0" encoding="UTF-8"?>
<svg id="infp" xmlns="http://www.w3.org/2000/svg" viewBox="0 0 400 400">
  <defs>
    <style>
      .cls-1 {
        stroke-width: 0px;
      }
    </style>
  </defs>
  <path class="cls-1" d="m131.92,136.76c3.31-12.27.81-24.76-5.8-34.55l46.03-30.11-7.66-11.72-48.22,31.54c-4.1-3.03-8.81-5.38-14.02-6.78-22.41-6.05-45.57,7.26-51.62,29.68-2.93,10.86-1.46,22.21,4.15,31.96,3.9,6.78,9.47,12.21,16.15,15.88l-14.11,52.28,13.52,3.65,13.85-51.31c2.37.41,4.74.63,7.09.63,18.56,0,35.6-12.38,40.66-31.14Zm-47.96,16.16h-.02c-14.95-4.05-23.83-19.5-19.8-34.46,3.38-12.52,14.75-20.78,27.14-20.78,2.42,0,4.87.31,7.32.97,14.96,4.04,23.85,19.49,19.81,34.45-4.04,14.96-19.49,23.84-34.44,19.81Z"/>
  <path class="cls-1" d="m349.37,141.13c13.13-19.15,8.23-45.4-10.92-58.53-16.29-11.17-37.73-9.28-51.85,3.32l-44.67-30.63-7.92,11.55,43.82,30.04c-4.77,8.55-6.4,18.41-4.58,28.16,2.06,11.06,8.31,20.65,17.58,27,7.09,4.86,15.3,7.39,23.72,7.39,2.59,0,5.2-.24,7.81-.73,1.01-.19,2.01-.43,3-.68l13.17,53.39,13.59-3.35-13.8-55.92c4.28-2.91,8.02-6.62,11.04-11.01Zm-11.55-7.92c-4.24,6.19-10.65,10.36-18.02,11.73-7.38,1.38-14.85-.2-21.04-4.45h0c-6.19-4.24-10.36-10.65-11.73-18.02-1.38-7.38.2-14.85,4.45-21.04,5.44-7.93,14.26-12.2,23.22-12.2,5.47,0,11,1.59,15.85,4.92,12.78,8.76,16.05,26.29,7.29,39.07Z"/>
  <path class="cls-1" d="m302.2,273.93l-50.16,17.53c-8.94-19.51-31.5-29.4-52.15-22.18-10.62,3.71-19.15,11.33-24.03,21.46-.45.93-.85,1.87-1.22,2.82l-50.82-20.99-5.34,12.94,53.23,21.98c-.19,5.17.58,10.38,2.34,15.41,6.06,17.33,22.38,28.21,39.78,28.21,4.6,0,9.27-.76,13.85-2.36,18.65-6.52,29.82-24.91,28.01-43.75l51.13-17.87-4.62-13.22Zm-63.1,47.3c-3.26,6.76-8.96,11.85-16.04,14.33-7.09,2.48-14.71,2.05-21.47-1.21-6.76-3.26-11.85-8.96-14.33-16.04-2.48-7.09-2.05-14.71,1.21-21.47,3.26-6.76,8.96-11.85,16.04-14.33,14.63-5.11,30.69,2.63,35.8,17.25h0c2.48,7.09,2.04,14.72-1.21,21.48Z"/>
</svg>