<?xml version="1.0" encoding="UTF-8"?>
<svg id="Layer_1" data-name="Layer 1" xmlns="http://www.w3.org/2000/svg" version="1.1" viewBox="0 0 400 400">
  <defs>
    <style>
      .cls-1 {
        <!-- fill: #000; -->
        stroke-width: 0px;
      }
    </style>
  </defs>
  <path class="cls-1" d="M-1,0v399h401V0H-1ZM386,385H13V14h373v371Z"/>
  <path class="cls-1" d="M172.2,72.1l-7.7-11.7-48.2,31.5c-7-5.2-15.6-8.2-25-8.2-23.2,0-42.1,18.9-42.1,42.1s8.8,29.7,21.8,36.9l-14.1,52.3,13.5,3.7,13.8-51.3c2.3.4,4.7.6,7.1.6,23.2,0,42.1-18.9,42.1-42.1s-2.7-16.9-7.2-23.6l46-30.1ZM91.3,153.9c-2.4,0-4.8-.3-7-.9h0c-12.1-3.2-21-14.2-21-27.2s12.6-28.1,28.1-28.1,28.1,12.6,28.1,28.1-12.6,28.1-28.1,28.1Z"/>
  <path class="cls-1" d="M356.7,117.3c0-23.2-18.9-42.1-42.1-42.1s-20.6,4.1-28,10.7l-44.7-30.6-7.9,11.5,43.8,30.1c-3.4,6-5.3,13-5.3,20.4,0,23.2,18.9,42.1,42.1,42.1s7.3-.5,10.7-1.4l13.2,53.4,13.6-3.3-13.8-56c11.1-7.6,18.4-20.3,18.4-34.8ZM314.6,145.4c-15.5,0-28.1-12.6-28.1-28.1s12.6-28.1,28.1-28.1,28.1,12.6,28.1,28.1-12.6,28.1-28.1,28.1Z"/>
  <path class="cls-1" d="M306.8,287.2l-4.6-13.2-50.2,17.5c-6.7-14.5-21.3-24.5-38.3-24.5s-33,11-39.2,26.6l-50.8-21-5.3,12.9,53.2,22c0,.5,0,1,0,1.5,0,23.2,18.9,42.1,42.1,42.1s42.1-18.9,42.1-42.1,0-2.7-.2-4l51.1-17.9ZM213.8,337.1c-15.5,0-28.1-12.6-28.1-28.1s12.6-28.1,28.1-28.1,22.4,7.7,26.4,18.5c1.1,3,1.7,6.3,1.7,9.7,0,15.5-12.6,28.1-28.1,28.1Z"/>
</svg>