<?xml version="1.0" encoding="UTF-8"?>
<svg id="infp" xmlns="http://www.w3.org/2000/svg" viewBox="0 0 400 400">
  <defs>
    <style>
      .cls-1 {
        stroke-width: 0px;
      }
    </style>
  </defs>
  <polygon class="cls-1" points="98.78 48 98.78 153 171.82 153 171.82 166.59 161.93 177.47 171.82 186.46 171.82 187 172.09 186.7 172.29 186.89 209.78 145.65 171.58 109.28 161.93 119.42 190.22 146.35 190.06 146.53 171.82 129.17 171.82 139 112.78 139 112.78 62 342.59 62 342.59 203 51.71 203 51.71 320 34 320 34 367 81 367 81 350.5 91 350.5 91 336.5 81 336.5 81 320 65.71 320 65.71 217 356.59 217 356.59 48 98.78 48"/>
  <circle class="cls-1" cx="287" cy="146" r="30"/>
  <rect class="cls-1" x="104.43" y="336.5" width="32.29" height="14"/>
  <rect class="cls-1" x="195.85" y="336.5" width="32.29" height="14"/>
  <rect class="cls-1" x="150.14" y="336.5" width="32.29" height="14"/>
  <rect class="cls-1" x="241.57" y="336.5" width="32.29" height="14"/>
  <polygon class="cls-1" points="297.28 336.5 287.28 336.5 287.28 350.5 311.28 350.5 311.28 326.5 297.28 326.5 297.28 336.5"/>
  <polygon class="cls-1" points="268.1 283.42 278.24 293.07 287.66 283.18 297.28 283.18 297.28 313.12 311.28 313.12 311.28 283.18 325.42 283.18 336.3 293.06 345.71 282.7 304.47 245.22 268.1 283.42"/>
</svg>