<?xml version="1.0" encoding="UTF-8"?>
<svg id="Layer_1" data-name="Layer 1" xmlns="http://www.w3.org/2000/svg" version="1.1" viewBox="0 0 400 400">
  <defs>
    <style>
      .cls-1 {
        <!-- fill: #000; -->
        stroke-width: 0px;
      }
    </style>
  </defs>
  <path class="cls-1" d="M-1,0v399h401V0H-1ZM386,385H13V14h373v371Z"/>
  <path class="cls-1" d="M200,117c-45.8,0-83,37.2-83,83s37.2,83,83,83,83-37.2,83-83-37.2-83-83-83ZM200,269c-38,0-69-31-69-69s31-69,69-69,69,31,69,69-31,69-69,69Z"/>
  <rect class="cls-1" x="193" y="290" width="14" height="44"/>
  <rect class="cls-1" x="193" y="73" width="14" height="40.4"/>
  <rect class="cls-1" x="193" y="31" width="14" height="22"/>
  <rect class="cls-1" x="30" y="197" width="22" height="14"/>
  <rect class="cls-1" x="349" y="197" width="22" height="14"/>
  <rect class="cls-1" x="193" y="349" width="14" height="22"/>
  <rect class="cls-1" x="69.5" y="196.5" width="40.8" height="14"/>
  <rect class="cls-1" x="290.1" y="196.5" width="40.4" height="14"/>
  <rect class="cls-1" x="114.3" y="105.6" width="14" height="38.4" transform="translate(-52.7 122.3) rotate(-45)"/>
  <rect class="cls-1" x="271.7" y="263" width="14" height="38.4" transform="translate(-117.9 279.7) rotate(-45)"/>
  <rect class="cls-1" x="101.6" y="274" width="41.7" height="14" transform="translate(-162.9 168.9) rotate(-45)"/>
  <rect class="cls-1" x="259.5" y="117.8" width="38.4" height="14" transform="translate(-6.6 233.6) rotate(-45)"/>
</svg>