<?xml version="1.0" encoding="UTF-8"?>
<svg id="infp" xmlns="http://www.w3.org/2000/svg" viewBox="0 0 400 400">
  <defs>
    <style>
      .cls-1 {
        stroke-width: 0px;
      }
    </style>
  </defs>
  <rect class="cls-1" x="193" y="31" width="14" height="22"/>
  <rect class="cls-1" x="30" y="197" width="22" height="14"/>
  <rect class="cls-1" x="193" y="349" width="14" height="22"/>
  <rect class="cls-1" x="101.62" y="274.04" width="41.68" height="14" transform="translate(-162.86 168.91) rotate(-45)"/>
  <path class="cls-1" d="m200,117c-45.77,0-83,37.23-83,83s37.23,83,83,83,83-37.23,83-83-37.23-83-83-83Zm0,152c-38.05,0-69-30.95-69-69s30.95-69,69-69,69,30.95,69,69-30.95,69-69,69Z"/>
  <rect class="cls-1" x="193" y="73" width="14" height="40.41"/>
  <rect class="cls-1" x="114.31" y="105.59" width="14" height="38.43" transform="translate(-52.72 122.33) rotate(-45)"/>
  <rect class="cls-1" x="69.5" y="196.5" width="40.84" height="14"/>
  <rect class="cls-1" x="193" y="290" width="14" height="44"/>
  <rect class="cls-1" x="271.69" y="262.98" width="14" height="38.43" transform="translate(-117.91 279.72) rotate(-45)"/>
  <rect class="cls-1" x="290.06" y="196.5" width="40.44" height="14"/>
  <rect class="cls-1" x="349" y="197" width="22" height="14"/>
  <rect class="cls-1" x="259.48" y="117.81" width="38.43" height="14" transform="translate(-6.63 233.62) rotate(-45)"/>
</svg>