<?xml version="1.0" encoding="UTF-8"?>
<svg xmlns="http://www.w3.org/2000/svg" version="1.1" viewBox="0 0 400 400">
  <defs>
    <style>
      .cls-1, .cls-2, .cls-3 {
        stroke: #000;
      }

      .cls-1, .cls-2, .cls-3, .cls-4 {
        stroke-linecap: square;
        stroke-miterlimit: 10;
        stroke-width: 14px;
      }

      .cls-1, .cls-4 {
        fill: none;
      }

      .cls-2 {
        fill: #fff;
      }

      .cls-4 {
        stroke: #fff;
      }
    </style>
  </defs>
  <!-- Generator: Adobe Illustrator 28.6.0, SVG Export Plug-In . SVG Version: 1.2.0 Build 709)  -->
  <g>
    <g id="rand">
      <rect class="cls-3" x="6" y="7" width="387" height="385"/>
    </g>
    <g id="PICTO">
      <path class="cls-2" d="M6,241c0-8.17,1.09-16.17,3.17-23.94,16.51-61.47,95.44-108.06,190.33-108.06,106.87,0,193.5,59.1,193.5,132v151H6v-151Z"/>
      <polyline class="cls-4" points="375.17 8 375.17 80 258 80"/>
      <line class="cls-4" x1="375.17" y1="80" x2="375.17" y2="123.96"/>
      <polyline class="cls-4" points="27 8 27 80 144.17 80"/>
      <line class="cls-4" x1="27" y1="80" x2="27" y2="123.96"/>
      <line class="cls-3" x1="68" y1="297" x2="68" y2="381"/>
      <line class="cls-3" x1="97" y1="297" x2="97" y2="381"/>
      <rect class="cls-3" x="68" y="229" width="29" height="68"/>
      <circle class="cls-3" cx="82" cy="210" r="19"/>
      <polyline class="cls-1" points="40.4 162.52 40.4 230.52 129.41 230.52 129.41 160"/>
      <line class="cls-3" x1="293" y1="297" x2="293" y2="381"/>
      <line class="cls-3" x1="322" y1="297" x2="322" y2="381"/>
      <rect class="cls-3" x="293" y="229" width="29" height="68"/>
      <circle class="cls-3" cx="307" cy="210" r="19"/>
      <polyline class="cls-1" points="265.4 162.52 265.4 230.52 354.41 230.52 354.41 160"/>
      <line class="cls-3" x1="183" y1="342" x2="183" y2="381"/>
      <line class="cls-3" x1="212" y1="342" x2="212" y2="381"/>
      <rect class="cls-3" x="183" y="274" width="29" height="68"/>
      <circle class="cls-3" cx="197" cy="255" r="19"/>
      <polyline class="cls-1" points="155.4 230.52 155.4 275.52 244.41 275.52 244.41 228"/>
    </g>
  </g>
</svg>