<?xml version="1.0" encoding="UTF-8"?>
<svg id="infp" xmlns="http://www.w3.org/2000/svg" viewBox="0 0 400 400">
  <defs>
    <style>
      .cls-1 {
        stroke-width: 0px;
      }
    </style>
  </defs>
  <polygon class="cls-1" points="368.17 130.96 382.17 130.96 382.17 87 382.17 73 382.17 1 368.17 1 368.17 73 251 73 251 87 368.17 87 368.17 130.96"/>
  <polygon class="cls-1" points="151.17 73 34 73 34 1 20 1 20 87 151.17 87 151.17 73"/>
  <path class="cls-1" d="m340.27,141.88c-37.7-25.72-87.69-39.88-140.77-39.88-96.58,0-179.47,47.63-197.09,113.25-2.26,8.43-3.41,17.1-3.41,25.75v158h401v-158c0-37.64-21.21-72.85-59.73-99.12ZM61,290v95H13v-144c0-7.43.99-14.87,2.93-22.12,3.24-12.06,9.17-23.71,17.46-34.55v53.19h27.6v52.48Zm29,95h-15v-81h15v81Zm115,0h-15v-36h15v36Zm110,0h-15v-81h15v81Zm-8-201c-14.34,0-26,11.66-26,26,0,4.95,1.39,9.58,3.8,13.52h-12.4v-68h-14v82h27.6v147.48h-67v-102.48h32.41v-61.52h-14v47.52h-18.21c2.41-3.94,3.8-8.57,3.8-13.52,0-14.34-11.66-26-26-26s-26,11.66-26,26c0,4.95,1.39,9.58,3.8,13.52h-12.4v-45h-14v59h27.6v102.48h-72v-147.48h32.41v-84.52h-14v70.52h-18.21c2.41-3.94,3.8-8.57,3.8-13.52,0-14.34-11.66-26-26-26s-26,11.66-26,26c0,4.95,1.39,9.58,3.8,13.52h-12.4v-54.66c8.86-8.37,19.26-16.05,31.03-22.81,33.74-19.38,76.73-30.05,121.07-30.05,60.18,0,113.79,19.21,147.91,48.96v58.56h-18.21c2.41-3.94,3.8-8.57,3.8-13.52,0-14.34-11.66-26-26-26Zm79,201h-57v-147.48h32.41v-58.5c15.64,18.28,24.59,39.44,24.59,61.99v144Z"/>
</svg>