<?xml version="1.0" encoding="UTF-8"?>
<svg id="Layer_1" data-name="Layer 1" xmlns="http://www.w3.org/2000/svg" version="1.1" viewBox="0 0 400 400">
  <defs>
    <style>
      .cls-1 {
        <!-- fill: #1d1d1b; -->
      }

      .cls-1, .cls-2 {
        stroke-width: 0px;
      }

      .cls-2 {
        <!-- fill: #000; -->
      }
    </style>
  </defs>
  <path class="cls-1" d="M104.2,223.5c0,.1-.1.2-.2.3v-.3h.2Z"/>
  <path class="cls-1" d="M219.2,268.5c0,.1-.1.2-.2.3v-.3h.2Z"/>
  <path class="cls-1" d="M329,223.5v.3c0-.1.1-.2.2-.3h-.2Z"/>
  <path class="cls-2" d="M382.2,0v131h-14v-44h-117.2v-14h117.2V0H34v73h117.2v14H34v44h-14V0H-1v399h401V0h-17.8ZM61,385H13v-144c0-7.4,1-14.9,2.9-22.1,3.2-12.1,9.2-23.7,17.5-34.6v53.2h27.6v147.5ZM90,385h-15v-81h15v81ZM205,385h-15v-36h15v36ZM315,385h-15v-81h15v81ZM307,184c-14.3,0-26,11.7-26,26s1.4,9.6,3.8,13.5h-12.4v-68h-14v82h27.6v147.5h-67v-102.5h32.4v-61.5h-14v47.5h-18.2c0,.1-.1.2-.2.3v-.3h.2c2.4-3.9,3.8-8.6,3.8-13.5,0-14.3-11.7-26-26-26s-26,11.7-26,26,1.4,9.6,3.8,13.5h-12.4v-45h-14v59h27.6v102.5h-72v-147.5h32.4v-84.5h-14v70.5h-18.2c0,.1-.1.2-.2.3v-.3h.2c2.4-3.9,3.8-8.6,3.8-13.5,0-14.3-11.7-26-26-26s-26,11.7-26,26,1.4,9.6,3.8,13.5h-12.4v-54.7c8.8-8.4,19.3-16,31-22.8,33.7-19.4,76.7-30,121.1-30s113.8,19.2,147.9,48.9v58.6h-18.2c0,.1-.1.2-.2.3v-.3h.2c2.4-3.9,3.8-8.6,3.8-13.5,0-14.3-11.7-26-26-26ZM386,385h-57v-147.5h32.4v-58.5c15.6,18.3,24.6,39.5,24.6,62v144Z"/>
  <path class="cls-2" d="M104,223.5v.3c0-.1.1-.2.2-.3h-.2Z"/>
  <path class="cls-2" d="M104.2,223.5c0,.1-.1.2-.2.3v-.3h.2Z"/>
  <path class="cls-2" d="M329,223.5v.3c0-.1.1-.2.2-.3h-.2Z"/>
  <path class="cls-2" d="M329.2,223.5c0,.1-.1.2-.2.3v-.3h.2Z"/>
  <path class="cls-2" d="M219,268.5v.3c0-.1.1-.2.2-.3h-.2Z"/>
  <path class="cls-2" d="M219.2,268.5c0,.1-.1.2-.2.3v-.3h.2Z"/>
</svg>