<?xml version="1.0" encoding="UTF-8"?>
<svg id="infp" xmlns="http://www.w3.org/2000/svg" viewBox="0 0 400 400">
  <defs>
    <style>
      .cls-1 {
        stroke-width: 0px;
      }
    </style>
  </defs>
  <path class="cls-1" d="m343.26,73.51c-27.6-19.3-74.83-42.28-143.26-42.5V1h-14v30.28c-61.99,2.67-105.3,24.08-131.26,42.23-30.28,21.17-44.06,42.31-44.63,43.2l-2.38,3.71,2.32,3.75c.55.89,13.85,22.08,43.92,43.29,26.53,18.7,71.63,40.86,137.58,42.43l.42,62.7c-4.35,1.36-10.59,3.8-16.83,7.94-15.13,10.03-23.13,25.05-23.13,43.46s8.89,33.32,25.7,42.3c6.8,3.63,13.57,5.59,18.3,6.61v24.51h14v-30.42l-.02-6.36-6.33-.61c-1.54-.15-37.65-3.99-37.65-36.03s32.83-38.85,34.21-39.1l5.83-1.02-.49-73.94c66.45-1.38,111.84-23.67,138.49-42.46,30.07-21.21,43.37-42.4,43.92-43.29l2.32-3.75-2.38-3.71c-.57-.89-14.34-22.03-44.63-43.2Zm-77.26,46.99c0,37.22-30.28,67.5-67.5,67.5s-67.5-30.28-67.5-67.5,30.28-67.5,67.5-67.5,67.5,30.28,67.5,67.5Zm-241.41.07c10.67-13.83,53.4-61.99,138-73.21-26.98,13.3-45.59,41.08-45.59,73.14s18.67,59.93,45.72,73.21c-46.42-6-79.34-22.74-100.09-37.26-20.75-14.52-33.03-29.19-38.04-35.89Zm310.77,35.89c-20.95,14.65-54.3,31.59-101.44,37.44,27.25-13.2,46.08-41.14,46.08-73.39s-18.76-60.07-45.91-73.3c46.3,5.92,79.53,22.79,100.57,37.39,20.98,14.56,33.59,29.28,38.74,35.98-5.01,6.7-17.29,21.37-38.04,35.89Z"/>
  <circle class="cls-1" cx="198.5" cy="120.5" r="36.5"/>
</svg>