<?xml version="1.0" encoding="UTF-8"?>
<svg id="Layer_1" data-name="Layer 1" xmlns="http://www.w3.org/2000/svg" version="1.1" viewBox="0 0 400 400">
  <defs>
    <style>
      .cls-1 {
        fill: none;
      }

      .cls-1, .cls-2 {
        stroke-width: 0px;
      }

      .cls-2 {
        <!-- fill: #000; -->
      }
    </style>
  </defs>
  <g id="rand">
    <g>
      <path class="cls-2" d="M162.7,193.7c-46.4-6-79.3-22.8-100.1-37.3-20.8-14.5-33-29.2-38-35.9,10.7-13.8,53.4-62,138-73.2-27,13.3-45.6,41.1-45.6,73.2s18.7,60,45.7,73.2Z"/>
      <path class="cls-2" d="M266,120.5c0,37.2-30.3,67.5-67.5,67.5s-67.5-30.3-67.5-67.5,30.3-67.5,67.5-67.5,67.5,30.3,67.5,67.5Z"/>
      <path class="cls-2" d="M373.4,120.6c-5,6.7-17.3,21.4-38,35.9-21,14.6-54.3,31.6-101.5,37.4,27.2-13.2,46.1-41.1,46.1-73.4s-18.8-60.1-45.9-73.3c46.3,5.9,79.5,22.8,100.6,37.4,21,14.6,33.6,29.3,38.8,36Z"/>
      <path class="cls-2" d="M186,14v17.3c-62,2.7-105.3,24.1-131.3,42.2-21.5,15.1-34.7,30.1-40.7,37.8V14h172Z"/>
      <path class="cls-2" d="M196,372.9v12.1H14v-255.2c6,7.8,18.8,22.8,40,37.7,26.5,18.7,71.6,40.9,137.6,42.4l.4,62.7c-4.4,1.4-10.6,3.8-16.8,7.9-15.1,10-23.1,25.1-23.1,43.5s8.9,33.3,25.7,42.3c6.8,3.6,13.6,5.6,18.3,6.6Z"/>
      <path class="cls-2" d="M387,14v101.4c-3.5-5-17.4-23.4-43.7-41.9-27.6-19.3-74.8-42.3-143.3-42.5V14h187Z"/>
      <path class="cls-2" d="M387,125.6v259.4h-177v-24.4s-6.3-.6-6.3-.6c-1.5-.2-37.7-4-37.7-36s32.8-38.8,34.2-39.1l5.8-1-.5-73.9c66.5-1.4,111.9-23.7,138.5-42.5,26-18.3,39.4-36.6,43-41.8Z"/>
    </g>
  </g>
  <g id="PICTO">
    <path class="cls-1" d="M0,0v399h401V0H0ZM266,120.5c0,37.2-30.3,67.5-67.5,67.5s-67.5-30.3-67.5-67.5,30.3-67.5,67.5-67.5,67.5,30.3,67.5,67.5ZM234.1,47.2c46.3,5.9,79.5,22.8,100.6,37.4,21,14.6,33.6,29.3,38.8,36-5,6.7-17.3,21.4-38,35.9-21,14.6-54.3,31.6-101.5,37.4,27.2-13.2,46.1-41.1,46.1-73.4s-18.8-60.1-45.9-73.3ZM162.7,193.7c-46.4-6-79.3-22.8-100.1-37.3-20.8-14.5-33-29.2-38-35.9,10.7-13.8,53.4-62,138-73.2-27,13.3-45.6,41.1-45.6,73.2s18.7,60,45.7,73.2ZM14,14h172v17.3c-62,2.7-105.3,24.1-131.3,42.2-21.5,15.1-34.7,30.1-40.7,37.8V14ZM14,129.8c6,7.8,18.8,22.8,40,37.7,26.5,18.7,71.6,40.9,137.6,42.4l.4,62.7c-4.4,1.4-10.6,3.8-16.8,7.9-15.1,10-23.1,25.1-23.1,43.5s8.9,33.3,25.7,42.3c6.8,3.6,13.6,5.6,18.3,6.6v12.1H14v-255.2ZM387,385h-177v-24.4s-6.3-.6-6.3-.6c-1.5-.2-37.7-4-37.7-36s32.8-38.8,34.2-39.1l5.8-1-.5-73.9c66.5-1.4,111.9-23.7,138.5-42.5,26-18.3,39.4-36.6,43-41.8v259.4ZM387,115.4c-3.5-5-17.4-23.4-43.7-41.9-27.6-19.3-74.8-42.3-143.3-42.5V14h187v101.4Z"/>
  </g>
</svg>