<?xml version="1.0" encoding="UTF-8"?>
<svg id="infp" xmlns="http://www.w3.org/2000/svg" viewBox="0 0 400 400">
  <defs>
    <style>
      .cls-1 {
        stroke-width: 0px;
      }
    </style>
  </defs>
  <path class="cls-1" d="m206,94.76h113.44l-39.74,155.98,49.3,46.92,49.3-46.92-42.07-165.14v-4.84h-130.22V1h-14v79.76H60.2v7.12L18.7,250.74l49.3,46.92,49.3-46.92-39.74-155.98h114.44v244.7H1v14h191v40.54h14v-40.54h194v-14h-194V94.76Zm123,19.2l32.5,127.54c-27.08.63-56.97.9-65.09.38l32.59-127.92Zm-23.35,142.14c2.87.05,6.14.07,9.82.07,9.68,0,22.13-.16,37.31-.47l-23.78,22.63-23.35-22.23Zm-261,0c2.87.05,6.14.07,9.82.07,9.68,0,22.13-.16,37.31-.47l-23.78,22.63-23.35-22.23Zm-9.24-14.22l32.59-127.92,32.5,127.54c-27.08.63-56.97.9-65.09.38Z"/>
</svg>