<?xml version="1.0" encoding="UTF-8"?>
<svg id="Layer_1" data-name="Layer 1" xmlns="http://www.w3.org/2000/svg" version="1.1" viewBox="0 0 400 400">
  <defs>
    <style>
      .cls-1 {
        <!-- fill: #000; -->
        stroke-width: 0px;
      }
    </style>
  </defs>
  <path class="cls-1" d="M-1,0v399h401V0H-1ZM192,14v67.7c-63.1.2-116.7.1-124.7-.6l-5.5-2.6-5.9,12.7,3.1,1.5L18.7,250.7l49.3,46.9,49.3-46.9-39.6-155.4c10.2.2,27.6.4,57.6.4s34,0,56.7-.1v243.8H13V14h179ZM35.4,241.9l32.6-127.9,32.5,127.5c-27.1.6-56.9.9-65.1.4ZM91.8,255.7l-23.8,22.6-23.3-22.2c2.9,0,6.1,0,9.8,0,9.7,0,22.1-.2,37.3-.5ZM13,353.5h179v31.5H13v-31.5ZM386,385h-180v-31.5h180v31.5ZM206,339.5V95.6c46-.2,91.3-.5,113.4-.7l-39.7,155.9,49.3,46.9,49.3-46.9-39.8-156,25.4-.2-21.9-10.3.9-6.1-6.9-1c-3.4-.5-11.1-1.6-13.9,3.8-36,.3-77.3.6-116.1.7V14h180v325.5h-180ZM296.4,241.9l32.6-127.9,32.5,127.5c-27.1.6-57,.9-65.1.4ZM352.8,255.7l-23.8,22.6-23.4-22.2c2.9,0,6.1,0,9.8,0,9.7,0,22.1-.2,37.3-.5Z"/>
</svg>