<?xml version="1.0" encoding="UTF-8"?>
<svg xmlns="http://www.w3.org/2000/svg" version="1.1" viewBox="0 0 400 400">
  <defs>
    <style>
      .cls-1 {
        fill: none;
        stroke: #000;
        stroke-linecap: square;
        stroke-miterlimit: 10;
        stroke-width: 14px;
      }
    </style>
  </defs>
  <!-- Generator: Adobe Illustrator 28.6.0, SVG Export Plug-In . SVG Version: 1.2.0 Build 709)  -->
  <g>
    <g id="rand">
      <rect class="cls-1" x="6" y="7" width="387" height="385"/>
    </g>
    <g id="PICTO">
      <polyline class="cls-1" points="66.5 91.5 26.5 248.5 68 288 109.5 248.5 69.5 91.5"/>
      <line class="cls-1" x1="199" y1="387" x2="199" y2="8"/>
      <path class="cls-1" d="M65.2,87.76c4.8,2.24,268.02,0,268.02,0-12.22-5.76,1.78-3.76,1.78-3.76"/>
      <path class="cls-1" d="M32,248.5c4.5,1.5,69,0,69,0"/>
      <polyline class="cls-1" points="327.5 91.5 287.5 248.5 329 288 370.5 248.5 330.5 91.5"/>
      <path class="cls-1" d="M293,248.5c4.5,1.5,69,0,69,0"/>
      <line class="cls-1" x1="8" y1="346.46" x2="393" y2="346.46"/>
    </g>
  </g>
</svg>