<?xml version="1.0" encoding="UTF-8"?>
<svg id="Layer_1" data-name="Layer 1" xmlns="http://www.w3.org/2000/svg" version="1.1" viewBox="0 0 400 400">
  <defs>
    <style>
      .cls-1 {
        <!-- fill: #000; -->
        stroke-width: 0px;
      }
    </style>
  </defs>
  <path class="cls-1" d="M-1,0v399h401V0H-1ZM296,116h22v14h-22v-14ZM284.8,45.3l9.9,9.9-15.6,15.6-9.9-9.9,15.6-15.6ZM195,18h14v22h-14v-22ZM120.2,45.3l15.6,15.6-9.9,9.9-15.6-15.6,9.9-9.9ZM87,116h22v14h-22v-14ZM109,384.3h-14v-88.8l-45.5-34.7-12.2-117,13.9-1.5,11.6,111,46.2,35.3v95.7ZM153,384.3h-14v-133.2l-59.9-55.7,9.5-10.2,64.4,59.8v139.3ZM121,132c0-44.7,36.3-81,81-81s81,36.3,81,81-36.3,81-81,81-81-36.3-81-81ZM262,384.3h-14v-139.3l64.4-59.8,9.5,10.2-59.9,55.7v133.2ZM351.5,260.7l-45.5,34.7v88.8h-14v-95.7l46.2-35.3,11.6-111,13.9,1.5-12.2,117Z"/>
</svg>