<?xml version="1.0" encoding="UTF-8"?>
<svg id="infp" xmlns="http://www.w3.org/2000/svg" viewBox="0 0 400 400">
  <defs>
    <style>
      .cls-1 {
        stroke-width: 0px;
      }
    </style>
  </defs>
  <rect class="cls-1" x="195" y="18" width="14" height="22"/>
  <rect class="cls-1" x="296" y="116" width="22" height="14"/>
  <rect class="cls-1" x="87" y="116" width="22" height="14"/>
  <polygon class="cls-1" points="338.2 253.27 291.95 288.54 291.95 384.26 305.95 384.26 305.95 295.46 351.5 260.73 363.69 143.76 349.76 142.31 338.2 253.27"/>
  <polygon class="cls-1" points="312.36 185.11 248 244.95 248 384.26 262 384.26 262 251.05 321.89 195.36 312.36 185.11"/>
  <polygon class="cls-1" points="51.24 142.31 37.31 143.76 49.5 260.73 95.05 295.46 95.05 384.26 109.05 384.26 109.05 288.54 62.8 253.27 51.24 142.31"/>
  <polygon class="cls-1" points="79.11 195.36 139 251.05 139 384.26 153 384.26 153 244.95 88.64 185.11 79.11 195.36"/>
  <rect class="cls-1" x="271" y="51" width="22" height="14" transform="translate(41.6 216.42) rotate(-45.01)"/>
  <rect class="cls-1" x="116" y="47" width="14" height="22" transform="translate(-4.99 103.95) rotate(-44.99)"/>
  <circle class="cls-1" cx="202" cy="132" r="81"/>
</svg>