<?xml version="1.0" encoding="UTF-8"?>
<svg id="infp" xmlns="http://www.w3.org/2000/svg" viewBox="0 0 400 400">
  <defs>
    <style>
      .cls-1 {
        stroke-width: 0px;
      }
    </style>
  </defs>
  <polygon class="cls-1" points="177.36 140.14 177.36 182.04 135 182.04 135 225.1 177.36 225.1 177.36 268.17 220.89 268.17 220.89 225.1 264.43 225.1 264.43 182.04 220.89 182.04 220.89 140.14 177.36 140.14"/>
  <polygon class="cls-1" points="334.67 340.17 63.62 340.17 63.62 189.27 85.51 211.87 95.56 202.13 56.75 162.06 16.77 201.96 26.66 211.87 49.62 188.95 49.62 354.17 348.67 354.17 348.67 312.7 334.67 312.7 334.67 340.17"/>
  <polygon class="cls-1" points="348.67 205.1 348.67 48.86 49.62 48.86 49.62 96.7 63.62 96.7 63.62 62.86 334.67 62.86 334.67 206.72 311.82 183.13 301.77 192.87 340.58 232.95 380.57 193.04 370.68 183.13 348.67 205.1"/>
</svg>