<?xml version="1.0" encoding="UTF-8"?>
<svg id="infp" xmlns="http://www.w3.org/2000/svg" viewBox="0 0 400 400">
  <defs>
    <style>
      .cls-1 {
        stroke-width: 0px;
      }
    </style>
  </defs>
  <path class="cls-1" d="m98.56,50.21c-1.14-3.05-2.09-6.7-2.49-9.27h51.93v-14h-56c-3.27,0-6.2,1.51-8.02,4.13-2.53,3.65-2.46,9.11-1.34,14.58H29.74v14h72.35l-3.53-9.45Z"/>
  <rect class="cls-1" x="144" y="50" width="83" height="14"/>
  <path class="cls-1" d="m330.49,80.59c10.92,0,16.31-8.85,18.49-16.59h18.02v-14h-23.84l-6.47.03-.51,6.45c0,.1-1.09,10.11-5.69,10.11s-5.5-9.93-5.5-10l-.39-6.59h-79.79v14h67.26c2.35,8.84,8.43,16.59,18.42,16.59Z"/>
  <rect class="cls-1" x="356" y="21" width="14" height="25"/>
  <polygon class="cls-1" points="371 118.09 371 104.09 226.49 104.09 226.49 79.8 205.96 99.85 189 99.85 189 79 175 79 175 100.11 97.37 100.11 68.06 70.8 44 91.72 44 72 30 72 30 122.45 67.39 89.93 91.57 114.11 182 114.11 182 113.85 211.67 113.85 212.49 113.05 212.49 118.09 371 118.09"/>
  <path class="cls-1" d="m126.24,290h-14v24.45h-24.5l11.02-12.1-10.35-9.43-19.61,21.52h-30.8v-24.45h-14v94.43l50.99-55.97h37.25v27.55h14v-27.55h18.08v-14h-18.08v-24.45Zm-88.24,58.27v-19.81h18.05l-18.05,19.81Z"/>
  <path class="cls-1" d="m154.2,290l-7-.2-.41,13.99,7,.2c1.14.03,27.82,1.07,28.2,24.12.16,9.46-4.09,16.14-12.97,20.43-7.44,3.59-15.28,4.03-15.34,4.03l-6.99.31.62,13.99,6.99-.31c14.63-.65,42.17-9.56,41.69-38.68-.48-29.02-27.55-37.47-41.8-37.88Z"/>
  <path class="cls-1" d="m293.68,291.11c-4.77,7.13-10.2,15.23-15.63,23.35h-59.05v-26.45h-14v85h14v-16.55h30.85c-2.05,3.04-3.37,4.98-3.69,5.42l-4.12,5.65,11.29,8.26,4.13-5.64c.62-.85,4.25-6.22,9.27-13.68h56.58v-14h-47.18c3.08-4.59,6.28-9.36,9.39-14h37.79v-14h-28.41c3.46-5.17,6.4-9.56,8.34-12.45h36.3v71h14v-85h-57.77l-2.08,3.11Zm-34.41,51.35h-40.27v-14h49.67c-3.33,4.97-6.52,9.72-9.4,14Z"/>
  <path class="cls-1" d="m370.5,335c-5.79,0-10.5,4.71-10.5,10.5s4.71,10.5,10.5,10.5,10.5-4.71,10.5-10.5-4.71-10.5-10.5-10.5Zm0,14c-1.93,0-3.5-1.57-3.5-3.5s1.57-3.5,3.5-3.5,3.5,1.57,3.5,3.5-1.57,3.5-3.5,3.5Z"/>
  <polygon class="cls-1" points="235.81 243 224.5 229.77 213.19 243 235.81 243"/>
  <circle class="cls-1" cx="164.5" cy="172.5" r="6.5"/>
  <circle class="cls-1" cx="143.5" cy="236.5" r="6.5"/>
  <circle class="cls-1" cx="302.5" cy="236.5" r="6.5"/>
  <circle class="cls-1" cx="108.74" cy="172.52" r="6.5"/>
  <circle class="cls-1" cx="352.5" cy="236.5" r="6.5"/>
  <path class="cls-1" d="m2,274.36h401v-143.18H2v143.18Zm102.24-17.36h-14v-37.85h14v37.85Zm248-102.98h14v37.85h-14v-37.85Zm.26,61.98c11.3,0,20.5,9.2,20.5,20.5s-9.2,20.5-20.5,20.5-20.5-9.2-20.5-20.5,9.2-20.5,20.5-20.5Zm-30.26-61.98h14v37.85h-14v-37.85Zm-30,0h14v37.85h-14v-37.85Zm10.26,61.98c11.3,0,20.5,9.2,20.5,20.5s-9.2,20.5-20.5,20.5-20.5-9.2-20.5-20.5,9.2-20.5,20.5-20.5Zm-40.26-61.98h14v37.85h-14v-37.85Zm-31,0h14v37.85h-14v-37.85Zm34.96,102.98h-83.39l41.69-48.77,41.69,48.77Zm-64.96-102.98h14v37.85h-14v-37.85Zm-36.74-2.02c11.3,0,20.5,9.2,20.5,20.5s-9.2,20.5-20.5,20.5-20.5-9.2-20.5-20.5,9.2-20.5,20.5-20.5Zm-.5,84.5c0,11.3-9.2,20.5-20.5,20.5s-20.5-9.2-20.5-20.5,9.2-20.5,20.5-20.5,20.5,9.2,20.5,20.5Zm-55.26-84.48c11.3,0,20.5,9.2,20.5,20.5s-9.2,20.5-20.5,20.5-20.5-9.2-20.5-20.5,9.2-20.5,20.5-20.5Zm-48.5,2h14v37.85h-14v-37.85Zm0,65.12h14v37.85h-14v-37.85Zm-30-65.12h14v37.85h-14v-37.85Zm0,65.12h14v37.85h-14v-37.85Z"/>
</svg>