<?xml version="1.0" encoding="UTF-8"?>
<svg id="infp" xmlns="http://www.w3.org/2000/svg" viewBox="0 0 400 400">
  <defs>
    <style>
      .cls-1 {
        stroke-width: 0px;
      }
    </style>
  </defs>
  <polygon class="cls-1" points="56.59 292.92 29.28 192.14 220.52 140.31 216.86 126.79 12.1 182.29 46.74 310.1 139.64 284.92 135.98 271.4 56.59 292.92"/>
  <polygon class="cls-1" points="265.57 113.59 269.23 127.1 343.75 106.9 371.07 207.68 177.56 260.13 181.22 273.65 388.25 217.53 353.6 89.73 265.57 113.59"/>
  <polygon class="cls-1" points="126.35 134.44 103.87 58.52 203.99 28.88 260.86 220.71 274.28 216.74 213.44 11.48 86.47 49.07 112.92 138.42 126.35 134.44"/>
  <polygon class="cls-1" points="273.65 266.06 296.43 341.32 196.36 370.94 139.19 177.83 125.77 181.8 186.91 388.34 313.91 350.74 287.05 262 273.65 266.06"/>
  <path class="cls-1" d="m218.49,170.19c-7.2-4.35-15.67-5.63-23.84-3.61-8.17,2.02-15.06,7.1-19.41,14.3-4.35,7.2-5.63,15.67-3.61,23.84,2.02,8.17,7.1,15.06,14.3,19.41,4.98,3,10.55,4.54,16.22,4.54,2.54,0,5.09-.31,7.62-.93,8.17-2.02,15.06-7.1,19.41-14.3,4.35-7.2,5.63-15.67,3.61-23.84-2.02-8.17-7.1-15.06-14.3-19.41Z"/>
</svg>