<?xml version="1.0" encoding="UTF-8"?>
<svg id="Layer_1" data-name="Layer 1" xmlns="http://www.w3.org/2000/svg" version="1.1" viewBox="0 0 400 400">
  <defs>
    <style>
      .cls-1 {
        <!-- fill: #000; -->
        stroke-width: 0px;
      }
    </style>
  </defs>
  <path class="cls-1" d="M-1,0v399h401V0H-1ZM386,385H13V14h373v371Z"/>
  <polygon class="cls-1" points="192.3 308 125.7 377.5 30 286 176.7 132.7 186.8 142.4 49.8 285.5 125.3 357.7 182.1 298.3 192.3 308"/>
  <polygon class="cls-1" points="370.3 121.8 222 276.8 211.9 267.2 350.5 122.3 275 50.1 221.7 105.9 211.6 96.2 274.6 30.3 370.3 121.8"/>
  <polygon class="cls-1" points="272.3 180 262.9 190.4 115.1 55.5 44.7 132.6 103.1 186 93.7 196.3 24.9 133.5 114.2 35.7 272.3 180"/>
  <polygon class="cls-1" points="375.5 274.3 286.2 372.1 127.1 226.8 136.5 216.5 285.3 352.3 355.7 275.2 297.2 222.6 306.6 212.2 375.5 274.3"/>
  <path class="cls-1" d="M232,200.5c0,17.4-14.1,31.5-31.5,31.5s-31.5-14.1-31.5-31.5,14.1-31.5,31.5-31.5,31.5,14.1,31.5,31.5Z"/>
</svg>